<svg width="128" height="107" viewBox="0 0 128 107" fill="none" xmlns="http://www.w3.org/2000/svg">
<path fill-rule="evenodd" clip-rule="evenodd" d="M25.0659 19.5004V39.0008L67.3424 49.0075C90.5952 54.5114 110.447 59.6679 111.457 60.4667C112.78 61.5133 113.295 68.0344 113.295 83.7268C113.295 95.721 113.673 105.534 114.136 105.534C114.598 105.534 117.907 103.822 121.489 101.731L128 97.927V73.2466C128 51.0097 127.746 48.493 125.427 47.8085C124.011 47.3907 105.318 43.3863 83.8854 38.9099C62.453 34.4335 43.4279 30.1271 41.6089 29.3415C38.8738 28.1601 38.3003 26.7588 38.3003 21.2476V14.5828L61.4605 14.9873L84.6206 15.3904L85.0618 23.8185L85.5029 32.2466H93.5171H101.531V16.1233V0H63.2986H25.0659V19.5004ZM7.01863 5.47312L0 9.32366L0.401447 34.2415L0.802888 59.1578L43.6735 68.2484C67.2527 73.2481 87.2705 77.7846 88.1557 78.3313C89.0424 78.8766 89.7673 82.2698 89.7673 85.8697V92.4172L66.6072 92.0127L43.447 91.6096L43.0059 83.1815L42.5647 74.7534H34.5506H26.5364V90.8767V107H64.8117H103.087L102.677 87.5934L102.266 68.1883L59.6224 58.0189C36.1681 52.4256 16.6474 47.5842 16.243 47.2603C15.8386 46.9364 15.1769 36.5339 14.7725 24.1454L14.0373 1.62112L7.01863 5.47312ZM113.295 17.4513V33.4368L120.174 35.7732C123.958 37.0586 127.266 38.1096 127.527 38.1096C127.787 38.1096 128 31.8757 128 24.2553V10.401L121.486 5.93337C117.902 3.47677 114.594 1.46575 114.133 1.46575C113.672 1.46575 113.295 8.65967 113.295 17.4513ZM1.85135 84.2017L2.27337 98.2788L8.52294 101.99L14.7725 105.7V90.1907C14.7725 73.2027 15.4401 74.4764 4.79231 71.1682C1.42931 70.1246 1.42932 70.129 1.85135 84.2017Z" fill="#284928"/>
</svg>
